<?xml version="1.0" encoding="UTF-8" standalone="no"?>
<!-- Created with Inkscape (http://www.inkscape.org/) -->

<svg
   width="56.803223mm"
   height="12.5519mm"
   viewBox="0 0 56.803223 12.5519"
   version="1.1"
   id="svg5"
   inkscape:version="1.1.2 (b8e25be833, 2022-02-05)"
   sodipodi:docname="dessin.svg"
   xmlns:inkscape="http://www.inkscape.org/namespaces/inkscape"
   xmlns:sodipodi="http://sodipodi.sourceforge.net/DTD/sodipodi-0.dtd"
   xmlns="http://www.w3.org/2000/svg"
   xmlns:svg="http://www.w3.org/2000/svg">
  <sodipodi:namedview
     id="namedview7"
     pagecolor="#ffffff"
     bordercolor="#666666"
     borderopacity="1.0"
     inkscape:pageshadow="2"
     inkscape:pageopacity="0.0"
     inkscape:pagecheckerboard="0"
     inkscape:document-units="mm"
     showgrid="false"
     fit-margin-top="0"
     fit-margin-left="0"
     fit-margin-right="0"
     fit-margin-bottom="0"
     inkscape:zoom="2.0359279"
     inkscape:cx="103.14707"
     inkscape:cy="23.330885"
     inkscape:window-width="1920"
     inkscape:window-height="1001"
     inkscape:window-x="-9"
     inkscape:window-y="-9"
     inkscape:window-maximized="1"
     inkscape:current-layer="layer1" />
  <defs
     id="defs2" />
  <g
     inkscape:label="Calque 1"
     inkscape:groupmode="layer"
     id="layer1"
     transform="translate(-105.07553,-31.7641)">
    <g
       id="g14224">
      <g
         id="g2393">
        <path
           class="st0"
           d="m 105.93842,43.875402 c -0.10583,0 -0.23812,-0.02646 -0.34395,-0.07937 -0.26459,-0.185208 -0.34396,-0.555625 -0.18521,-0.820208 l 6.50875,-10.63625 c 0.0529,-0.07937 0.10583,-0.15875 0.21166,-0.211667 0.29105,-0.15875 0.635,-0.07937 0.82021,0.185209 l 2.06375,3.386666 -4.68312,8.175625 z"
           id="path826"
           style="fill:#137900;fill-opacity:1;stroke-width:0.264583" />
        <path
           class="st25"
           d="m 109.32509,36.546444 2.59292,-4.233333 c 0.0529,-0.07937 0.10583,-0.15875 0.21166,-0.211667 0.29105,-0.15875 0.635,-0.07937 0.82021,0.185208 l 2.06375,3.386667 -1.77271,3.095625 c -0.15875,-0.07937 -0.3175,-0.185208 -0.42333,-0.3175 -1.13771,-0.9525 -2.32833,-1.561042 -3.4925,-1.905 z"
           id="path828"
           style="fill:#e6e6e6;fill-opacity:1;stroke-width:0.264583" />
        <path
           d="m 111.67988,32.180819 c 0.3175,-0.555625 1.13771,-0.555625 1.45521,0 l 2.14313,3.518958 -0.0794,0.132292 -1.77271,3.095625 -0.13229,0.211667 -2.80458,4.974166 h -4.52438 c -0.68791,0.02646 -1.11125,-0.714375 -0.76729,-1.296458 l 3.91583,-6.402917 z m 1.19063,6.720417 -0.0265,-0.02646 c -1.27,-0.899583 -1.82563,-1.508125 -3.41313,-2.010833 l -3.81,6.244166 c -0.13229,0.238125 0.0265,0.529167 0.3175,0.502709 h 0.0265 4.25979 z m -0.74084,-6.455834 -2.4077,3.96875 c 1.56104,0.502709 2.14312,1.137709 3.41312,2.037292 l 1.56104,-2.751667 -1.98437,-3.254375 c -0.13229,-0.211666 -0.47625,-0.211666 -0.58209,0 z"
           id="path830"
           style="stroke-width:0.264583" />
        <path
           class="st26"
           d="m 114.98717,35.699777 -4.65666,8.175625 h 10.795 c 0.3175,0 0.58208,-0.264583 0.58208,-0.582083 0,-0.132292 -0.0529,-0.238125 -0.10583,-0.343959 v 0 c -1.79917,-2.539999 -3.59834,-5.106458 -5.37104,-7.646458 -0.18521,-0.264583 -0.55563,-0.343958 -0.82021,-0.132291 -0.0529,0.05292 -0.10584,0.07937 -0.13229,0.132291 z"
           id="path832"
           style="fill:#358d71;fill-opacity:1;stroke-width:0.264583" />
        <path
           class="st8"
           d="m 114.98717,35.699777 -1.34937,2.354792 c 0.92604,0.15875 1.85208,0.529167 2.75167,1.322917 0.66145,0.582083 2.35479,0.740833 3.20145,0.635 l -3.33375,-4.7625 c -0.1852,-0.264584 -0.55562,-0.343959 -0.8202,-0.132292 -0.0529,0.05292 -0.10584,0.07937 -0.1323,0.132292 z"
           id="path834"
           style="stroke-width:0.264583" />
        <path
           d="m 113.77009,38.345611 -2.98979,5.265208 h 10.37167 v 0 c 0.5027,0 0.3175,-0.47625 0.13229,-0.740834 v 0 l -1.82563,-2.592916 c -1.11125,0.05292 -2.51354,-0.02646 -3.25437,-0.687917 -0.68792,-0.635 -1.50813,-1.058333 -2.43417,-1.243541 z m 2.06375,-3.042709 c -0.0794,-0.02646 -0.18521,0 -0.26458,0.05292 -0.0265,0 -0.0265,0.02646 -0.0529,0.02646 v 0 c 0,0 -0.0265,0.02646 -0.0265,0.05292 l -0.29104,0.396875 -1.16417,2.037292 c 0.9525,0.211666 1.79917,0.661458 2.51355,1.322916 0.52916,0.47625 1.85208,0.608542 2.56645,0.608542 z m -5.715,8.440208 3.12208,-5.476874 0.18521,-0.3175 1.34938,-2.354792 v -0.02646 l 0.29104,-0.423334 c 0.0265,-0.02646 0.0529,-0.07937 0.10583,-0.105833 v 0 c 0.0265,-0.02646 0.0794,-0.05292 0.10584,-0.105833 0.1852,-0.132292 0.42333,-0.185209 0.635,-0.132292 0.21166,0.02646 0.42333,0.15875 0.55562,0.343958 l 3.33375,4.7625 0.23813,0.343959 1.79916,2.539999 c 0.39688,0.555625 -0.0265,1.349375 -0.68791,1.349375 v 0 h -11.2448 z"
           id="path836"
           style="stroke-width:0.264583" />
      </g>
      <text
         xml:space="preserve"
         style="font-style:normal;font-weight:normal;font-size:10.5833px;line-height:1.25;font-family:sans-serif;fill:#000000;fill-opacity:1;stroke:none;stroke-width:0.265;stroke-miterlimit:4;stroke-dasharray:none"
         x="123.28175"
         y="42.424648"
         id="text2881"><tspan
           sodipodi:role="line"
           id="tspan2879"
           style="font-style:normal;font-variant:normal;font-weight:normal;font-stretch:normal;font-family:'Baskerville Old Face';-inkscape-font-specification:'Baskerville Old Face';stroke-width:0.265;stroke-miterlimit:4;stroke-dasharray:none"
           x="123.28175"
           y="42.424648">HighRise</tspan></text>
    </g>
  </g>
  <style
     type="text/css"
     id="style824">
	.st0{fill:#1379C2;}
	.st1{fill:#358DCC;}
	.st2{fill-rule:evenodd;clip-rule:evenodd;fill:#3FB754;}
	.st3{fill-rule:evenodd;clip-rule:evenodd;fill:#CCCCCC;}
	.st4{fill:#5D5E61;}
	.st5{fill:#924F34;}
	.st6{fill:#E6E6E6;}
	.st7{fill:#0F8C7E;}
	.st8{fill-rule:evenodd;clip-rule:evenodd;fill:#E6E6E6;}
	.st9{fill-rule:evenodd;clip-rule:evenodd;fill:#E6E6E6;stroke:#000000;stroke-width:0.4799;stroke-miterlimit:2.6131;}
	.st10{fill:#823B1F;}
	.st11{fill:#FFC810;}
	.st12{fill-rule:evenodd;clip-rule:evenodd;fill:#924F34;}
	.st13{fill:#E04538;}
	.st14{fill-rule:evenodd;clip-rule:evenodd;}
	.st15{fill-rule:evenodd;clip-rule:evenodd;fill:#FFC810;}
	.st16{fill-rule:evenodd;clip-rule:evenodd;fill:#E4E7E9;}
	.st17{fill:#3FB754;}
	.st18{fill-rule:evenodd;clip-rule:evenodd;fill:#5D5E61;}
	.st19{fill:#C92B1C;}
	.st20{fill:#666666;}
	.st21{fill:#FFD95E;}
	.st22{fill:#4D4D4D;}
	.st23{fill-rule:evenodd;clip-rule:evenodd;fill:#0F8C7E;}
	.st24{fill:#999999;}
	.st25{fill:#CCCCCC;}
	.st26{fill-rule:evenodd;clip-rule:evenodd;fill:#358DCC;}
	.st27{fill-rule:evenodd;clip-rule:evenodd;fill:#823B1F;}
</style>
</svg>
